<svg width="400" height="293" viewBox="0 0 400 293" fill="none" xmlns="http://www.w3.org/2000/svg">
<path fill-rule="evenodd" clip-rule="evenodd" d="M277.278 3.28562C320.095 -6.29842 359.763 5.07305 381.083 37.554C402.404 70.0342 396.827 121.575 392.208 144.325C387.589 167.076 375.874 187.913 361.333 206.004C334.325 239.604 297.827 265.316 257.026 279.197C216.224 293.076 171.924 295.922 129.404 288.901C105.552 284.962 30.9403 265.665 14.8342 207.432C-1.27166 149.199 -11.4647 99.4286 23.413 79.2116C58.2905 58.9938 82.4493 74.2003 99.7152 81.6777C180.381 116.612 234.462 12.8703 277.278 3.28562Z" fill="url(#paint0_linear_1_3220)"/>
<path fill-rule="evenodd" clip-rule="evenodd" d="M337.57 57.8301C344.438 57.2993 351.842 57.6423 357.439 61.6584C363.037 65.6745 365.579 74.4935 360.983 79.6249C366.179 77.5933 372.286 81.0388 374.888 85.9738C377.491 90.9082 377.355 96.8205 376.572 102.345C374.633 116.024 369.056 129.172 360.568 140.074C360.178 141.223 359.788 142.373 359.398 143.522C369.431 146.108 408.607 161.323 398.021 198.829C387.436 236.336 341.209 250.612 336.477 255.101C328.229 262.925 315.64 263.46 304.278 263.099C276.34 262.213 248.486 258.662 221.22 252.511C218.902 251.988 215.965 251.67 214.629 253.635C204.956 267.856 184.73 269.128 167.576 267.889C145.541 266.3 123.632 262.958 102.126 257.906C89.9274 255.04 76.9729 251.051 69.3733 241.087C60.5138 229.472 61.5369 213.367 62.9747 198.829C57.1513 202.067 47.4929 203.821 34.0003 204.09C26.0557 202.47 21.1005 199.59 19.1338 195.451C10.1407 176.522 7.05681 152.131 18.2557 133.474C19.601 131.233 21.1532 129.024 23.344 127.598C25.6662 126.086 28.4973 125.589 31.2581 125.344C42.1459 124.38 53.317 126.921 62.7159 132.501C62.6323 101.953 62.5481 71.4037 62.4645 40.8548C62.4598 39.1052 62.4837 37.2488 63.4166 35.7685C64.7654 33.6281 67.5288 32.9646 70.0163 32.5002C92.6431 28.2765 115.526 25.4275 138.497 23.9751C146.003 23.5007 156.275 25.5893 156.309 33.11C156.44 61.9112 156.571 90.7124 156.702 119.514C156.733 126.369 157.174 125.796 160.385 123.809C158.366 124.019 158.816 120.594 160.346 119.26C166.058 114.281 174.381 114.098 181.958 114.175C198.906 114.349 215.854 114.522 232.802 114.696C249.222 114.864 268.915 116.947 276.35 131.589C276.133 127.237 280.078 123.131 284.435 123.171C289.186 123.215 293.16 119.092 294.547 114.547C295.934 110.003 295.322 105.119 294.698 100.409C287.036 92.9902 285.031 80.3793 290.013 70.9498C294.995 61.5204 306.543 56.0699 316.989 58.2182C323.736 59.6056 330.702 58.3602 337.57 57.8301ZM140.916 199.107C140.69 205.172 140.451 211.317 138.666 217.116L140.916 199.107ZM133.894 124.689C135.471 125.151 137.423 126.549 136.595 127.968C143.447 128.653 141.401 128.336 141.709 120.261C142.022 112.067 142.048 103.007 136.684 96.8059C131.937 91.3182 124.196 89.6017 116.966 88.9847C108.529 88.2642 99.9998 88.6105 91.6479 90.0124C87.5727 90.6965 83.1586 91.8748 80.7939 95.2633C79.4703 97.1602 78.9833 99.5023 78.5945 101.782C77.0651 110.749 76.5874 119.895 77.1746 128.973C94.7424 120.799 115.297 119.247 133.894 124.689ZM286.358 184.89C286.787 184.456 287.438 184.351 288.042 184.268C290.457 183.935 292.871 183.604 295.285 183.271C289.744 180.769 286.386 174.824 285.383 168.829C284.38 162.833 285.359 156.702 286.349 150.703C282.805 154.647 283.06 160.598 283.524 165.88C284.54 177.441 285.928 185.324 286.358 184.89ZM240.774 241.836C241.249 240.291 242.865 239.462 244.049 238.362C246.18 236.382 246.97 233.389 247.666 230.564C250.067 220.805 252.483 210.927 252.453 200.877C252.447 198.748 252.339 196.56 253.043 194.551C253.749 192.542 255.515 190.725 257.645 190.715C259.89 190.704 260.426 187.589 260.225 185.353C259.533 177.643 258.841 169.932 258.149 162.222C257.928 159.759 257.702 157.273 256.955 154.916C254.192 146.202 243.544 140.933 234.94 144.023C233.887 144.401 233.605 145.731 233.486 146.844C232.161 159.177 230.837 171.511 229.513 183.845C229.277 186.035 232.107 187.434 234.243 186.891C236.379 186.349 238.01 184.68 239.857 183.477C241.704 182.275 244.307 181.583 246.003 182.99C247.92 184.581 250.758 182.813 252.422 180.961C254.088 179.109 256.256 176.875 258.624 177.648C255.846 180.305 253.069 182.962 250.291 185.619C249.37 186.5 248.557 188.26 249.721 188.78C252.913 187.648 255.798 185.664 257.998 183.09C259.015 183.058 259.062 184.655 258.495 185.499C256.357 188.682 251.324 189.391 250.027 192.999C247.002 201.422 237.569 207.017 228.727 205.631C226.913 205.347 226.01 207.733 225.791 209.556C224.921 216.824 224.05 224.092 223.18 231.359C222.98 233.031 222.793 234.8 223.481 236.336C224.63 238.901 227.702 239.871 230.426 240.561C234.026 241.473 237.668 242.389 241.347 242.788C242.897 242.956 242.891 242.388 240.774 241.836ZM97.3459 228.51C102.49 230.233 107.934 230.817 113.329 231.39C115.617 231.633 118.053 231.851 120.105 230.811C122.521 229.588 123.808 226.936 124.847 224.435C130.642 210.489 133.95 195.515 134.569 180.425C134.658 178.281 131.913 177.334 129.772 177.19C112.679 176.043 96.3321 183.557 80.8516 190.895C80.1099 191.246 79.3157 191.648 78.9494 192.382C78.6761 192.93 78.69 193.571 78.7106 194.183C78.9879 202.519 79.3376 211.154 83.0657 218.615C84.0729 220.63 85.3534 222.569 87.1667 223.906C88.2648 224.715 89.5221 225.277 90.7687 225.832C92.9317 226.795 95.1 227.759 97.3459 228.51ZM207.92 197.659C210.199 185.406 211.804 173.028 212.728 160.6C213.044 156.348 213.275 152.026 212.356 147.862C211.437 143.699 209.219 139.652 205.594 137.408C203.36 136.025 200.745 135.405 198.158 134.944C193.439 134.102 188.637 133.72 183.844 133.804C179.614 133.879 175.174 134.395 171.721 136.839C170.579 137.647 169.542 138.706 169.125 140.041C168.708 141.376 169.059 143.017 170.218 143.801C173.145 145.784 174.339 149.494 174.887 152.987C175.436 156.48 175.568 160.138 177.16 163.295C177.981 164.923 179.158 166.344 180.392 167.686C187.085 174.963 195.815 180.347 205.322 183.06C206.993 183.537 209.12 184.569 208.767 186.271C214.024 189.588 207.833 198.129 207.92 197.659ZM193.43 233.798C195.365 232.622 196.678 230.664 197.834 228.716C202.737 220.449 205.952 211.186 207.224 201.659C189.589 201.579 172.058 194.926 158.811 183.283C158.358 185.103 158.445 187.007 158.507 188.882C158.893 200.582 158.199 212.319 156.435 223.892C156.015 226.651 157.663 229.409 159.929 231.039C162.195 232.668 164.986 233.368 167.726 233.896C173.904 235.085 180.217 235.574 186.504 235.347C188.895 235.261 191.385 235.04 193.43 233.798ZM304.716 132.872C303.688 130.395 302.916 127.602 300.784 125.975C298.651 124.348 294.635 125.145 294.51 127.824C296.62 127.435 298.234 130.041 297.874 132.156C297.515 134.272 295.976 135.954 294.754 137.718C293.065 140.156 291.911 142.916 290.768 145.652C288.05 152.163 286.992 159.359 287.721 166.377C288.15 170.508 289.283 174.753 292.077 177.827C294.87 180.901 299.659 182.438 303.34 180.514C306.502 178.861 308.079 175.218 308.805 171.725C309.53 168.231 309.659 164.575 311.029 161.281C313.556 155.203 319.788 151.532 325.953 149.227C316.685 147.968 308.3 141.511 304.716 132.872ZM279.088 139.446C279.5 141.039 280.07 142.591 280.788 144.072C281.22 141.985 281.912 139.953 282.843 138.037C281.9 137.929 280.952 137.878 280.003 137.884C279.772 137.885 279.529 137.894 279.335 138.017C278.897 138.295 278.958 138.944 279.088 139.446ZM167.379 137.806C166.796 138.276 166.453 139.287 167.069 139.713C168.012 138.768 168.956 137.823 169.899 136.879C169.704 136.637 169.421 136.468 169.115 136.413C168.741 137.062 167.963 137.337 167.379 137.806Z" fill="white"/>
<path d="M330.747 131.038C332.763 131.038 334.397 129.405 334.397 127.389C334.397 125.374 332.763 123.74 330.747 123.74C328.732 123.74 327.098 125.374 327.098 127.389C327.098 129.405 328.732 131.038 330.747 131.038Z" fill="#FFB61D"/>
<path d="M309.848 127.389C310.947 127.389 311.838 126.498 311.838 125.399C311.838 124.299 310.947 123.408 309.848 123.408C308.748 123.408 307.857 124.299 307.857 125.399C307.857 126.498 308.748 127.389 309.848 127.389Z" fill="#FFB61D"/>
<path fill-rule="evenodd" clip-rule="evenodd" d="M121.369 75.0256C127.34 75.0635 133.311 75.1013 139.282 75.1391C139.562 75.1411 139.862 75.149 140.088 75.3143C140.548 75.6526 140.364 76.4448 139.89 76.7633C139.416 77.0818 138.801 77.0685 138.23 77.0486C132.975 76.8662 127.704 77.1395 122.497 77.8634C121.704 77.9735 120.869 78.089 120.128 77.7884C119.388 77.4872 118.821 76.6001 119.162 75.8769C119.518 75.1212 120.533 75.0203 121.369 75.0256ZM101.4 74.4391C101.779 74.816 101.597 75.5087 101.177 75.8384C100.757 76.1682 100.194 76.2339 99.6621 76.2876C94.3681 76.8237 89.0742 77.3598 83.7809 77.8959C83.1546 77.9596 82.507 78.0206 81.9086 77.8275C81.3094 77.6351 80.7674 77.117 80.7534 76.488C80.7388 75.8391 81.2895 75.2877 81.9052 75.0807C82.5203 74.8737 83.1884 74.9314 83.836 74.9825C89.26 75.4091 94.737 75.163 100.101 74.252C100.551 74.175 101.077 74.1173 101.4 74.4391ZM100.659 64.2772C101.054 64.5963 100.913 65.2804 100.517 65.5982C100.12 65.916 99.5798 65.9684 99.0729 66.0082L82.0718 67.3498C81.4355 67.3995 80.776 67.4473 80.1762 67.2304C79.5757 67.0127 79.0489 66.4534 79.0834 65.8158C79.1186 65.1702 79.7151 64.6693 80.3434 64.5167C80.9717 64.3641 81.6299 64.4782 82.2695 64.5731C88.0398 65.4257 93.907 64.6481 99.7158 64.1199C100.042 64.0901 100.404 64.0715 100.659 64.2772ZM124.402 60.9087C127.949 61.3618 131.545 61.4308 135.107 61.1143C136.524 60.9883 138.236 60.9292 139.04 62.101C138.085 62.8732 136.773 62.9827 135.547 63.0604C131.485 63.3158 127.423 63.5719 123.361 63.828C122.434 63.8864 121.279 63.8161 120.898 62.9701C120.555 62.2104 121.158 61.2968 121.932 60.9896C122.706 60.6818 123.575 60.8032 124.402 60.9087ZM93.7564 56.5662C93.7604 57.1792 92.9914 57.4439 92.3843 57.5335L83.4571 58.8419C82.8195 58.9355 82.1613 59.0277 81.539 58.8611C80.9166 58.6953 80.3348 58.2003 80.277 57.5587C80.2054 56.7738 80.9425 56.111 81.7122 55.9398C82.4818 55.7686 83.2793 55.9478 84.0616 56.0486C86.758 56.3956 89.4783 55.8031 92.1959 55.7096C92.8607 55.687 93.7511 55.9007 93.7564 56.5662ZM136.833 54.4291C137.525 54.506 138.233 54.9181 138.418 55.5882C137.191 56.5164 135.569 56.6849 134.037 56.8209C131.415 57.0532 128.792 57.2854 126.17 57.5183C125.246 57.5999 124.323 57.6821 123.399 57.7637C122.724 57.8235 122.021 57.8799 121.386 57.6403C120.752 57.4008 120.21 56.7712 120.304 56.0997C120.453 55.0415 121.842 54.7668 122.911 54.7893C126.875 54.8749 130.888 55.4734 134.772 54.6752C135.453 54.5352 136.143 54.3514 136.833 54.4291ZM140.316 44.4184C120.884 47.0385 100.962 45.6817 81.7978 49.8271C80.6612 50.0726 79.0748 50.0852 78.7809 48.96C78.8074 47.6343 80.5219 47.1559 81.8442 47.0617C100.487 45.7321 119.13 44.4025 137.773 43.0729C138.867 42.9946 140.401 43.3256 140.316 44.4184Z" fill="#E7EAEE"/>
<path fill-rule="evenodd" clip-rule="evenodd" d="M71.9629 245.841C72.166 248.191 68.9255 248.987 66.5655 248.997C54.3023 249.045 42.051 251.32 30.588 255.677C28.8384 256.342 26.966 257.18 26.1148 258.846C24.9868 261.053 26.2176 263.877 28.212 265.348C30.2071 266.819 32.7529 267.267 35.1992 267.665C98.779 278.018 163.304 282.557 227.707 281.205L228.743 281.182C236.171 281.011 243.751 280.611 250.556 277.67C244.923 273.722 239.29 269.774 233.656 265.825C243.408 263.877 253.47 265.265 263.366 266.242C286.015 268.478 308.881 268.523 331.539 266.378C329.944 268.927 326.437 269.281 323.43 269.345C294.929 269.959 266.393 268.946 238.006 266.314C241.71 268.751 245.413 271.189 249.117 273.626C250.459 274.509 251.944 275.63 252.021 277.235C252.138 279.647 249.175 280.85 246.793 281.244C238.888 282.55 230.846 282.758 222.835 282.875C160.269 283.79 97.6259 279.313 35.8262 269.51C32.8107 269.032 29.6863 268.498 27.1717 266.766C24.6571 265.034 22.9432 261.74 23.9996 258.876C25.0505 256.026 28.2485 254.689 31.1354 253.745C44.346 249.431 58.0961 246.768 71.9629 245.841ZM156.309 33.11C156.44 61.9112 156.571 90.7124 156.702 119.514C156.733 126.369 158.083 135.043 164.713 136.789C173.873 132.56 184.198 130.89 194.225 132.014C199.964 132.658 205.925 134.393 209.811 138.666C215.14 144.528 215.148 153.356 214.576 161.258C213.417 177.275 211.132 193.212 207.745 208.91C210.436 208.74 213.18 209.819 215.034 211.777C212.179 213.083 208.777 213.138 205.881 211.924C207.87 222.706 199.086 233.343 188.566 236.432C178.047 239.521 166.632 236.608 156.74 231.881C155.812 235.494 160.645 237.616 164.335 238.161C173.702 239.546 183.068 240.931 192.435 242.315C180.867 242.662 169.262 241.716 157.904 239.498C155.812 242.459 160.548 245.45 164.128 246.03C173.621 247.566 183.116 249.102 192.61 250.639C181.886 250.567 171.167 249.853 160.53 248.499C167.295 254.602 176.53 257.883 185.63 257.418C180.496 259.106 174.794 259.004 169.724 257.134C176.066 265.628 189.042 267.201 198.517 262.45C207.993 257.7 214.18 247.981 217.207 237.822C220.234 227.664 220.528 216.927 221.064 206.341C222.054 186.8 223.946 167.285 227.369 148.02C229.675 135.047 235.337 119.579 248.385 117.745C225.139 116.674 201.871 116.097 178.601 116.012C171.53 115.987 162.746 117.144 160.385 123.809C158.366 124.019 158.816 120.594 160.346 119.26C166.058 114.281 174.381 114.098 181.958 114.175L232.802 114.696C249.222 114.864 268.915 116.947 276.35 131.589C276.133 127.237 280.078 123.131 284.435 123.171C289.186 123.215 293.16 119.092 294.547 114.547C295.934 110.003 295.322 105.119 294.698 100.409C287.036 92.9902 285.031 80.3793 290.013 70.9498C291.422 68.2826 293.504 61.9231 305.132 57.8301C312.884 55.1012 320.546 55.4011 328.119 58.7298C342.342 55.9796 352.115 56.9563 357.439 61.6584C365.426 68.7126 365.579 74.4935 360.983 79.6249C366.179 77.5933 372.286 81.0388 374.888 85.9738C377.491 90.9082 377.355 96.8205 376.572 102.345C374.633 116.024 369.056 129.172 360.568 140.074L359.398 143.522C379.931 148.815 396.541 166.963 400 187.884C393.173 172.497 383.932 156.202 368.011 150.739C364.418 154.508 360.724 158.44 359.036 163.366C357.349 168.292 358.261 174.515 362.539 177.483C359.852 178.105 357.165 178.728 354.478 179.351C355.372 180.938 356.266 182.524 357.161 184.111C347.007 191.83 345.839 206.43 345.901 219.184C345.962 231.939 345.73 246.322 336.477 255.101C328.229 262.925 315.641 263.46 304.278 263.099C276.34 262.213 248.486 258.662 221.22 252.511C218.902 251.988 215.965 251.67 214.629 253.635C204.957 267.856 184.73 269.128 167.576 267.889C145.541 266.3 123.633 262.958 102.126 257.906C89.9274 255.04 76.9729 251.051 69.3733 241.087C60.5138 229.472 61.5369 213.367 62.9747 198.829C54.2399 203.686 43.8849 205.566 34.0003 204.09C44.4197 197.278 49.4721 184.247 49.567 171.798C49.6619 159.351 45.5071 147.284 40.8839 135.727C30.6988 141.634 25.3398 154.087 26.1373 165.834C26.9342 177.581 33.1669 188.485 41.5295 196.774C31.2203 190.268 24.399 178.547 23.8344 166.37C23.2697 154.193 28.9777 141.892 38.64 134.459C37.0961 129.179 29.1303 128.534 24.955 132.117C20.7801 135.699 19.4698 141.513 18.3958 146.91C16.4114 156.879 14.4188 167.082 15.8607 177.144C17.3025 187.206 22.8609 197.279 32.175 201.351C27.8226 204.488 22.0247 199.971 19.1339 195.451C7.41085 177.118 7.05681 152.131 18.2558 133.474C19.6011 131.233 21.1532 129.024 23.344 127.598C25.6662 126.086 28.4973 125.589 31.2581 125.344C42.1459 124.38 53.317 126.921 62.7166 132.501C62.6323 101.953 62.5487 71.4037 62.4645 40.8548C62.4598 39.1052 62.4837 37.2488 63.4166 35.7685C64.7654 33.6281 67.5289 32.9646 70.0163 32.5002C92.6431 28.2765 115.526 25.4275 138.497 23.9751C146.003 23.5007 156.275 25.5893 156.309 33.11ZM140.967 25.8156C116.612 26.9621 92.3452 29.973 68.4484 34.8131C67.4313 35.0188 66.3545 35.2597 65.6154 35.9875C64.6082 36.9794 64.5306 38.5512 64.5173 39.9644C64.232 70.3832 64.3527 100.805 64.8789 131.22C67.8035 130.491 70.7282 129.762 73.6522 129.033C72.509 122.792 71.3611 116.466 71.8501 110.14C72.3385 103.814 74.66 97.3804 79.4351 93.2018C84.603 88.6795 91.8151 87.4016 98.6655 86.9206C105.253 86.4582 111.88 86.5656 118.449 87.2404C125.155 87.9298 132.219 89.4193 137.057 94.1134C144.045 100.895 144.159 111.881 143.796 121.612C142.836 147.444 141.876 173.276 140.916 199.107C140.69 205.172 140.451 211.317 138.666 217.116C136.882 222.916 133.34 228.427 127.981 231.274C122.722 234.066 116.43 233.987 110.513 233.315C104.865 232.673 99.2713 231.553 93.8108 229.971C90.4941 229.011 87.1753 227.853 84.3562 225.859C75.0289 219.258 73.9262 206.087 73.6993 194.662C70.1178 194.015 66.6166 196.741 65.1377 200.067C63.6594 203.392 63.7244 207.171 63.8167 210.809C64.0456 219.884 64.3992 229.413 69.0323 237.221C76.1807 249.266 91.1947 253.717 104.904 256.593C129.236 261.699 153.94 265.028 178.756 266.546C167.681 260.906 157.862 251.251 155.526 239.044C154.891 235.728 154.824 232.334 154.757 228.958C153.464 162.955 152.171 96.9532 150.878 30.9503C150.796 26.7763 145.137 25.6192 140.967 25.8156ZM235.379 134.179C234.764 135.682 234.316 137.349 234.726 138.92C235.136 140.491 236.663 141.863 238.264 141.596C245.438 140.401 253.172 143.935 256.965 150.141C260.094 155.262 260.528 161.526 260.88 167.517L264.089 222.085C264.432 227.917 264.601 234.334 260.977 238.914C256.274 244.859 247.445 245.056 239.902 244.319C233.678 243.71 227.131 242.675 222.299 238.705C222.47 241.016 221.796 243.38 220.433 245.253C218.75 247.565 221.467 250.608 224.109 251.701C227.337 253.037 230.846 253.502 234.31 253.951C250.175 256.01 266.05 257.996 281.933 259.908C294.159 261.38 306.58 262.805 318.734 260.83C311.045 258.672 303.687 255.338 296.996 250.978C293.658 248.802 290.43 246.318 288.153 243.047C284.437 237.71 283.653 230.927 283.035 224.452C281.196 205.199 279.828 185.902 278.931 166.582C278.269 152.332 273.7 138.283 265.852 126.37C264.449 124.24 262.732 122.03 260.251 121.436C250.387 119.078 239.228 124.796 235.379 134.179ZM190.15 257.495C190.986 257.637 191.845 257.824 192.535 258.319C193.224 258.814 193.705 259.692 193.493 260.514C193.281 261.336 192.196 261.876 191.511 261.375C190.755 260.822 189.749 260.803 188.848 260.548C187.947 260.293 187.002 259.545 187.164 258.623C187.37 257.454 188.979 257.296 190.15 257.495ZM155.411 257.842C156.448 258.057 157.664 258.797 157.451 259.836C157.264 260.752 156.131 261.058 155.204 261.181C154.165 261.32 153.056 261.448 152.113 260.992C151.17 260.535 150.558 259.246 151.176 258.401C151.594 257.83 152.375 257.678 153.081 257.65C153.862 257.618 154.646 257.682 155.411 257.842ZM217.518 246.296C216.533 247.007 215.856 248.054 215.161 249.051C211.991 253.591 207.974 257.538 203.379 260.628C203.494 261.115 204.224 260.992 204.657 260.741C209.978 257.658 213.776 252.564 217.421 247.611C217.719 247.205 217.965 246.527 217.518 246.296ZM265.101 123.621C267.941 126.974 270.801 130.358 272.879 134.229C275.13 138.426 276.395 143.077 277.414 147.729C283.111 173.756 281.59 200.815 285.283 227.201C285.949 231.962 286.83 236.824 289.307 240.945C292.21 245.772 297.026 249.118 301.933 251.882C305.901 254.118 310.043 256.082 314.402 257.406C321.333 259.512 329.658 259.66 334.971 254.736C337.954 251.971 339.523 248.026 340.749 244.147C346.004 227.523 346.581 209.448 342.4 192.522C342.504 202.646 343.819 212.745 343.518 222.863C343.218 232.983 341.14 243.403 335.192 251.594C334.014 253.217 332.648 254.774 330.867 255.697C328.522 256.912 325.735 256.888 323.114 256.568C318.535 256.009 314.057 254.625 309.961 252.504C306.85 250.892 303.971 248.867 301.182 246.746C297.939 244.28 294.756 241.624 292.484 238.244C290.233 234.892 288.978 230.978 287.982 227.065C280.714 198.498 285.911 167.682 277.286 139.494C275.253 132.85 271.723 125.723 265.101 123.621ZM91.7016 249.299C108.48 251.89 125.26 254.479 142.039 257.069C141.614 258.179 140.08 258.218 138.902 258.061C124.552 256.144 110.202 254.227 95.8524 252.31C94.2302 252.093 92.6079 251.876 90.985 251.66C90.2154 251.556 89.2593 251.278 89.1618 250.508C89.0244 249.421 90.6195 249.133 91.7016 249.299ZM286.349 150.703C282.805 154.647 283.06 160.598 283.524 165.88C284.54 177.441 285.557 189.002 286.573 200.564C286.62 201.105 286.678 201.675 286.995 202.116C287.514 202.836 288.518 202.962 289.404 203.024C301.467 203.874 313.531 204.724 325.594 205.574C324.692 207 322.659 207.021 320.977 206.891C309.62 206.015 298.217 205.73 286.83 206.041C286.634 211.88 287.494 217.753 289.358 223.291C290.165 225.691 293.275 226.202 295.806 226.305C305.455 226.696 315.104 227.086 324.753 227.477C325.197 228.476 323.638 229.101 322.544 229.088C312.626 228.974 302.708 228.86 292.789 228.746C291.431 228.731 290.939 230.655 291.451 231.913C292.789 235.202 297.049 235.911 300.593 236.132L322.768 237.521C323.274 237.553 323.379 238.348 323.01 238.695C322.64 239.043 322.077 239.052 321.57 239.042L295.607 238.491C302.32 246.481 311.735 252.158 321.934 254.366C324.132 254.841 326.462 255.154 328.597 254.449C331.152 253.605 333.036 251.436 334.511 249.186C342.334 237.251 341.814 221.895 341.014 207.648L340.108 191.499C340.424 191.064 341.075 190.913 341.55 191.165C341.734 190.373 340.704 189.903 339.905 189.756C322.257 186.515 304.148 183.268 286.487 186.434C285.922 186.203 285.928 185.324 286.358 184.89C286.787 184.456 287.438 184.351 288.042 184.268C290.457 183.935 292.871 183.604 295.285 183.271C289.744 180.769 286.386 174.824 285.383 168.829C284.38 162.833 285.359 156.702 286.349 150.703ZM199.613 248.875C201.185 249.168 203.001 249.648 203.614 251.125C201.864 252.317 199.566 252.195 197.455 252.027C196.874 251.98 196.239 251.909 195.831 251.493C195.109 250.758 195.648 249.401 196.577 248.954C197.506 248.508 198.6 248.687 199.613 248.875ZM79.8995 238.088C97.9775 243.768 116.711 247.359 135.608 248.767C137.073 248.877 139.044 249.575 138.762 251.018C118.777 248.758 98.9137 245.417 79.2885 241.016C78.0365 240.735 76.4295 239.843 76.8959 238.647C77.306 237.597 78.824 237.75 79.8995 238.088ZM146.114 246.855C147.037 246.853 147.928 247.17 148.791 247.498C149.23 247.664 149.713 247.88 149.883 248.317C150.246 249.25 148.959 249.917 147.974 250.096C147.312 250.216 146.649 250.336 145.986 250.456C145.427 250.558 144.826 250.654 144.311 250.413C143.475 250.022 143.258 248.816 143.737 248.027C144.216 247.238 145.19 246.858 146.114 246.855ZM231.241 244.863C239.238 246.383 247.428 246.47 255.568 246.551C256.198 246.557 256.367 247.548 255.918 247.989C255.468 248.43 254.765 248.449 254.135 248.437C246.537 248.288 238.93 247.487 231.353 248.084C230.529 248.149 229.672 248.226 228.898 247.937C228.123 247.646 227.463 246.863 227.61 246.05C227.737 245.348 228.421 244.856 229.121 244.721C229.821 244.585 230.541 244.729 231.241 244.863ZM249.307 119.505C240.253 120.857 232.646 128.915 231.818 138.032C231.045 146.547 228.695 154.828 227.021 163.212C221.649 190.138 223.279 218.042 218.529 245.084C220.264 241.925 220.732 238.248 221.169 234.67L232.687 140.343C232.993 137.833 233.307 135.295 234.208 132.932C236.672 126.476 243.041 122.42 249.307 119.505ZM208.14 241.674C208.633 241.83 209.138 242.036 209.467 242.436C209.796 242.836 209.878 243.481 209.519 243.853C209.248 244.135 208.823 244.185 208.435 244.22C207.162 244.332 205.889 244.445 204.617 244.557C203.929 244.618 203.22 244.675 202.565 244.459C201.91 244.242 201.32 243.675 201.301 242.986C201.27 241.818 202.71 241.231 203.876 241.154C205.313 241.061 206.767 241.238 208.14 241.674ZM234.94 144.023C233.887 144.401 233.605 145.731 233.486 146.844L229.513 183.845C229.277 186.035 232.107 187.434 234.243 186.891C236.379 186.349 238.01 184.68 239.857 183.477C241.704 182.275 244.307 181.583 246.003 182.99C247.92 184.581 250.758 182.813 252.422 180.961C254.088 179.109 256.256 176.875 258.624 177.648C255.846 180.305 253.069 182.962 250.291 185.619C249.37 186.5 248.557 188.26 249.721 188.78C252.913 187.648 255.798 185.664 257.998 183.09C259.015 183.058 259.062 184.655 258.495 185.499C256.357 188.682 251.324 189.391 250.027 192.999C247.003 201.422 237.569 207.017 228.727 205.631C226.914 205.347 226.01 207.733 225.791 209.556C224.921 216.824 224.05 224.092 223.18 231.359C222.98 233.031 222.793 234.8 223.481 236.336C224.63 238.901 227.702 239.871 230.426 240.561C235.542 241.857 240.742 243.162 246.016 242.976C251.29 242.79 256.744 240.904 260.084 236.817C259.159 235.616 257.099 237.156 255.752 236.462C254.434 235.781 255.134 233.518 256.549 233.073C257.964 232.628 259.457 233.335 260.771 234.023C261.596 232.412 262.445 230.689 262.275 228.887C262.105 227.086 260.452 225.304 258.688 225.709C257.529 225.976 257.057 223.967 257.992 223.231C258.926 222.496 260.268 222.734 261.425 223.009C261.489 218.661 261.554 214.313 261.618 209.965C261.631 209.078 261.634 208.146 261.213 207.365C260.792 206.583 259.795 206.036 258.995 206.422C257.906 206.946 256.961 205.091 257.69 204.126C258.42 203.161 259.796 203.036 261.005 202.994C261.099 199.133 260.849 195.263 260.26 191.445C255.709 193.726 254.913 199.743 254.454 204.813C253.573 214.535 251.803 224.177 249.171 233.578C248.581 235.684 247.917 237.838 246.539 239.536C245.161 241.234 242.891 242.388 240.774 241.836C241.249 240.291 242.865 239.462 244.049 238.362C246.18 236.382 246.97 233.389 247.666 230.564C250.067 220.805 252.483 210.927 252.453 200.877L252.449 200.203C252.433 198.289 252.413 196.349 253.044 194.551C253.749 192.542 255.515 190.725 257.645 190.715C259.89 190.704 260.426 187.589 260.225 185.353C259.533 177.643 258.841 169.932 258.149 162.222C257.928 159.759 257.702 157.273 256.955 154.916C254.192 146.202 243.544 140.933 234.94 144.023ZM268.819 238.062C269.874 238.345 270.898 239.43 270.46 240.431C270.041 241.387 268.726 241.44 267.687 241.341C267.179 241.293 266.637 241.232 266.241 240.911C265.545 240.348 265.643 239.155 266.294 238.542C266.947 237.929 267.954 237.83 268.819 238.062ZM142.006 236.993C142.7 237.143 143.424 237.345 143.923 237.851C144.422 238.356 144.587 239.257 144.091 239.766C143.686 240.181 143.032 240.188 142.452 240.168C141.618 240.139 140.784 240.109 139.95 240.08C139.467 240.064 138.951 240.035 138.563 239.747C137.735 239.131 138.098 237.687 138.988 237.163C139.878 236.639 140.997 236.774 142.006 236.993ZM77.7485 229.427C82.4168 231.598 87.5462 232.545 92.6185 233.429C102.887 235.217 113.186 236.828 123.51 238.261C124.954 238.461 126.554 238.745 127.435 239.908C123.437 240.182 119.441 239.516 115.49 238.852C102.462 236.665 89.4345 234.477 76.4069 232.289C75.0415 232.06 73.2786 231.302 73.5447 229.943C73.8598 228.332 76.2603 228.735 77.7485 229.427ZM158.811 183.283C158.358 185.103 158.445 187.007 158.507 188.882C158.893 200.582 158.199 212.319 156.435 223.892C156.015 226.651 157.663 229.409 159.929 231.039C162.195 232.668 164.986 233.368 167.726 233.896C173.904 235.085 180.217 235.574 186.504 235.347C188.895 235.261 191.385 235.04 193.43 233.798C195.366 232.622 196.678 230.664 197.834 228.716C202.737 220.449 205.952 211.186 207.224 201.659C189.589 201.579 172.058 194.926 158.811 183.283ZM204.937 229.674C206.141 230.072 207.345 230.469 208.549 230.866C208.951 230.998 209.381 231.152 209.619 231.501C210.022 232.092 209.631 232.956 209.008 233.306C208.385 233.656 207.629 233.638 206.915 233.609C205.615 233.557 204.18 233.448 203.272 232.516C202.365 231.584 202.676 229.573 203.974 229.488C204.302 229.466 204.624 229.571 204.937 229.674ZM268.053 229.849C268.769 229.963 269.525 230.095 270.077 230.565C270.629 231.036 270.855 231.967 270.347 232.485C270.142 232.693 269.857 232.8 269.581 232.896C268.516 233.267 267.332 233.563 266.278 233.159C265.224 232.755 264.505 231.362 265.168 230.448C265.777 229.608 267.029 229.685 268.053 229.849ZM80.8516 190.895C80.1099 191.246 79.3157 191.648 78.9494 192.382C78.6761 192.93 78.69 193.571 78.7106 194.183C78.9879 202.519 79.3376 211.154 83.0657 218.615C84.0729 220.63 85.3534 222.569 87.1667 223.906C88.2648 224.715 89.5221 225.277 90.7687 225.832C92.9317 226.795 95.1 227.759 97.3459 228.51C102.49 230.233 107.934 230.817 113.329 231.39C115.617 231.633 118.053 231.851 120.105 230.811C122.521 229.588 123.808 226.936 124.847 224.435C130.642 210.489 133.95 195.515 134.569 180.425C134.658 178.281 131.913 177.334 129.772 177.19C112.679 176.043 96.3321 183.557 80.8516 190.895ZM137.224 179.82C136.785 180.397 136.731 181.169 136.687 181.892C135.665 198.956 131.418 215.822 124.236 231.335C131.078 227.873 136.176 221.149 137.663 213.626C138.173 211.04 138.278 208.393 138.381 205.759C138.706 197.453 139.031 189.146 139.356 180.84C139.374 180.402 139.377 179.92 139.098 179.582C138.638 179.022 137.663 179.243 137.224 179.82ZM140.058 221.383C140.926 221.43 141.742 221.791 142.586 222.001C143.341 222.189 143.57 223.265 143.148 223.92C142.726 224.574 141.912 224.858 141.141 224.967C140.336 225.08 139.471 225.037 138.778 224.611C138.086 224.185 137.637 223.295 137.913 222.531C138.209 221.714 139.189 221.336 140.058 221.383ZM268.551 219.127C269.363 219.295 270.059 219.798 270.727 220.288C271.09 220.554 271.476 220.853 271.594 221.287C271.746 221.841 271.381 222.437 270.877 222.713C270.374 222.989 269.77 223.009 269.198 222.964C268.384 222.899 267.544 222.697 266.93 222.159C266.316 221.621 266.004 220.678 266.387 219.957C266.775 219.225 267.74 218.959 268.551 219.127ZM75.4416 193.322C75.22 193.718 75.2644 194.203 75.3162 194.654L76.5217 205.273C77.1766 211.036 78.0338 217.246 82.0618 221.419C82.7333 221.101 82.3544 220.091 81.9311 219.48C78.6681 214.772 78.0398 208.785 77.5103 203.081C77.2005 199.738 76.89 196.394 76.5801 193.05C76.2683 192.721 75.6638 192.926 75.4416 193.322ZM290.23 215.075C301.296 215.348 312.362 215.621 323.428 215.894C325.122 215.936 326.821 215.978 328.496 216.23C328.147 217.44 326.556 217.668 325.296 217.656C314.199 217.551 303.065 216.864 292.027 218.018C291.084 218.117 290.064 218.214 289.246 217.735C288.427 217.255 288.06 215.941 288.813 215.363C289.203 215.063 289.738 215.063 290.23 215.075ZM259.825 212.901C260.069 212.98 260.318 213.064 260.517 213.226C261.178 213.765 260.932 214.916 260.255 215.435C259.579 215.954 258.667 216.014 257.814 216.035C256.927 216.057 255.892 215.987 255.386 215.257C254.751 214.341 255.505 212.985 256.556 212.614C257.607 212.242 258.766 212.553 259.825 212.901ZM267.916 210.664C268.948 210.775 269.952 211.137 270.818 211.71C271.48 212.147 271.348 213.246 270.746 213.762C270.143 214.278 269.284 214.35 268.491 214.322C267.69 214.292 266.853 214.171 266.204 213.699C265.556 213.227 265.17 212.315 265.517 211.591C265.914 210.767 267.006 210.566 267.916 210.664ZM156.435 185.41C155.833 194.095 155.563 202.804 155.626 211.51C155.628 211.877 155.879 212.4 156.193 212.209C156.86 204.891 157.187 197.542 157.173 190.194C157.17 188.566 157.137 186.879 156.435 185.41ZM144.605 207.691C145.555 207.762 146.392 208.314 147.166 208.869C147.405 209.04 147.65 209.222 147.783 209.484C148.059 210.024 147.728 210.721 147.209 211.037C146.691 211.354 146.05 211.378 145.443 211.351C144.063 211.286 142.328 210.535 142.483 209.162C142.589 208.216 143.656 207.619 144.605 207.691ZM270.215 201.84C271.139 202.22 272.09 203.21 271.612 204.087C271.289 204.681 270.502 204.81 269.825 204.817C269.041 204.825 268.255 204.76 267.481 204.626C266.393 204.436 266.227 202.725 267.071 202.013C267.916 201.301 269.193 201.421 270.215 201.84ZM377.899 184.846C378.28 185.483 378.287 186.268 378.282 187.011C378.25 192.266 378.217 197.522 378.185 202.778C378.181 203.416 378.096 204.19 377.516 204.458C377.016 204.689 376.399 204.364 376.12 203.888C375.841 203.411 375.816 202.833 375.807 202.282C375.726 197.59 376.249 192.786 374.92 188.285C374.525 186.948 374.052 185.278 375.085 184.341C375.892 183.608 377.34 183.91 377.899 184.846ZM242.777 184.237C238.792 186.709 234.602 189.251 229.925 189.588C229.075 189.649 228.691 190.665 228.524 191.501C227.768 195.264 227.352 199.094 227.28 202.93C227.276 203.165 227.278 203.417 227.414 203.608C227.629 203.913 228.069 203.926 228.441 203.906C232.09 203.715 235.787 203.334 239.176 201.968C242.564 200.602 245.647 198.128 247.027 194.746C248.408 191.364 247.744 187.05 244.924 184.728C244.318 184.228 243.444 183.823 242.777 184.237ZM212.277 199.031C213.557 199.367 214.837 199.703 216.116 200.04C216.595 200.165 217.127 200.331 217.356 200.77C217.625 201.286 217.311 201.952 216.824 202.271C216.337 202.591 215.73 202.651 215.15 202.703C214.23 202.784 213.283 202.863 212.4 202.592C211.517 202.32 210.704 201.608 210.603 200.69C210.502 199.771 211.383 198.796 212.277 199.031ZM34.7182 128.993C39.5085 130.933 43.1146 135.13 45.3512 139.79C47.5871 144.449 48.6056 149.587 49.4933 154.678C50.9623 163.106 52.132 171.708 51.0611 180.195C49.9896 188.682 46.442 197.145 39.8648 202.614C44.6559 202.871 50.3764 202.681 52.9773 198.65C54.1444 196.84 56.657 196.039 58.6554 196.84C57.3988 195.753 58.3475 193.73 59.2804 192.356C63.1014 186.723 65.7235 180.249 66.6603 173.507C68.4776 160.435 63.9095 147.187 57.132 135.862C52.7345 128.514 42.4776 125.371 34.7182 128.993ZM148.305 196.709C149.293 197.098 149.063 198.732 148.14 199.257C147.215 199.781 146.064 199.545 145.035 199.284C144.554 199.161 144.045 199.018 143.718 198.646C142.957 197.774 143.831 196.302 144.958 196.042C146.085 195.783 147.229 196.286 148.305 196.709ZM183.844 133.804C179.614 133.879 175.174 134.395 171.721 136.839C170.579 137.647 169.542 138.706 169.125 140.041C168.708 141.376 169.059 143.017 170.218 143.801C173.145 145.784 174.339 149.494 174.887 152.987C175.436 156.48 175.568 160.138 177.16 163.295C177.981 164.923 179.158 166.344 180.392 167.686C187.085 174.963 195.815 180.347 205.322 183.06C206.993 183.537 209.12 184.569 208.767 186.271C195.089 183.402 182.616 175.148 174.629 163.679C172.202 171.133 167.415 177.799 161.127 182.479C173.393 192.917 189.265 199.032 205.363 199.522C206.092 199.545 206.917 199.517 207.409 198.978C207.732 198.625 207.833 198.129 207.92 197.659C210.199 185.406 211.804 173.028 212.728 160.6C213.044 156.348 213.275 152.026 212.356 147.862C211.437 143.699 209.219 139.652 205.594 137.408C203.36 136.025 200.745 135.405 198.158 134.944C193.439 134.102 188.637 133.72 183.844 133.804ZM267.887 193.435C268.996 193.437 270.395 193.76 270.591 194.852C270.784 195.94 269.545 196.751 268.448 196.891C267.646 196.993 266.775 196.896 266.139 196.397C265.502 195.898 265.206 194.921 265.648 194.243C266.101 193.549 267.059 193.435 267.887 193.435ZM349.831 171.586C347.796 179.471 346.607 187.547 345.423 195.604C345.364 196.005 345.33 196.479 345.633 196.749C348.805 192.806 351.716 188.653 354.34 184.326C354.598 183.899 354.852 183.34 354.562 182.934C353.905 182.015 353.248 181.096 352.591 180.177C352.103 179.495 351.6 178.596 352.029 177.876C352.378 177.291 353.159 177.167 353.837 177.104L359.412 176.591C359.352 176.246 359.141 175.948 358.937 175.664C357.445 173.586 355.817 171.402 353.427 170.491C352.102 169.986 350.186 170.213 349.831 171.586ZM91.6479 90.0124C87.5727 90.6965 83.1586 91.8748 80.7939 95.2633C79.4703 97.1602 78.9833 99.5023 78.5945 101.782C77.0651 110.749 76.5874 119.895 77.1746 128.973C94.7424 120.799 115.297 119.247 133.894 124.689C135.471 125.151 137.423 126.549 136.595 127.968C122.645 122.809 107.107 122.04 92.7161 125.796C88.0591 127.011 83.5334 128.682 78.9036 129.995C72.022 131.947 64.9154 133.1 57.7703 133.426C70.7832 151.094 72.4672 176.392 61.9105 195.629C68.479 194.387 74.65 191.627 80.7063 188.797C89.7476 184.571 98.7505 180.115 108.355 177.403C117.96 174.69 128.345 173.803 137.872 176.777C138.986 177.125 139.6 175.516 139.644 174.35L141.709 120.261C142.022 112.067 142.048 103.007 136.684 96.8059C131.937 91.3182 124.196 89.6017 116.967 88.9847C108.529 88.2642 99.9998 88.6105 91.6479 90.0124ZM217.511 190.404C217.778 190.578 218.053 190.797 218.115 191.109C218.242 191.743 217.471 192.147 216.849 192.323C215.946 192.579 215.015 192.836 214.081 192.738C213.147 192.64 212.198 192.103 211.891 191.216C211.584 190.329 212.2 189.164 213.139 189.147C214.678 189.119 216.223 189.562 217.511 190.404ZM350.022 156.368C346.624 158.274 342.564 158.97 338.725 158.306C339.216 159.675 341.369 160.152 341.38 161.607C341.386 162.493 340.552 163.117 340.077 163.864C339.712 164.44 339.555 165.12 339.409 165.785C338.041 172.048 337.256 178.438 337.066 184.846C337.034 185.95 337.309 187.409 338.407 187.529C340.681 187.778 342.823 189.054 344.126 190.935C345.193 184.215 346.261 177.497 347.329 170.778C347.577 169.219 347.785 167.478 346.871 166.191C345.615 164.42 346.709 161.993 347.811 160.122L350.022 156.368ZM147.681 185.408C148.841 185.639 150.16 186.641 149.721 187.739C149.45 188.416 148.633 188.689 147.905 188.728C147.177 188.767 146.42 188.659 145.739 188.918C144.936 189.221 143.992 188.511 143.895 187.659C143.796 186.807 144.389 185.98 145.161 185.605C145.932 185.231 146.84 185.24 147.681 185.408ZM267.874 184.37C268.605 184.472 269.376 184.632 269.908 185.144C270.44 185.656 270.587 186.629 270.02 187.103C269.833 187.259 269.597 187.342 269.366 187.421C268.361 187.764 267.286 188.099 266.256 187.845C265.226 187.591 264.329 186.496 264.686 185.497C265.097 184.343 266.661 184.203 267.874 184.37ZM334.436 170.558C333.662 170.745 333.097 171.391 332.587 172.003L329.512 175.685C328.911 176.404 329.968 177.407 330.903 177.486C331.837 177.564 332.928 177.344 333.593 178.005C334.29 178.698 334.002 179.905 333.432 180.705C332.862 181.504 332.053 182.158 331.708 183.078C331.193 184.452 332.046 186.175 333.452 186.599C334.215 186.829 335.287 186.475 335.294 185.678C335.333 181.016 335.605 176.356 336.11 171.722C336.196 170.93 335.211 170.372 334.436 170.558ZM178.408 172.873C178.997 173.265 179.378 173.891 179.771 174.479C183.144 179.531 188.787 183.003 194.817 183.736C196.211 183.906 197.857 184.076 198.556 185.294C197.242 186.595 195.101 186.437 193.3 186.018C186.916 184.533 181.066 180.844 176.975 175.724C176.322 174.908 175.726 173.666 176.454 172.916C176.946 172.408 177.819 172.482 178.408 172.873ZM331.12 150.552C326.612 151.66 322.11 153.223 318.456 156.087C314.802 158.951 312.084 163.302 312.113 167.944C312.15 173.831 309.257 179.666 304.549 183.201L312.476 184.134C313.404 184.243 314.444 184.322 315.171 183.734C316.234 182.874 315.962 181.224 315.694 179.884C315.425 178.544 315.484 176.772 316.759 176.279C318.343 175.667 319.653 177.864 319.413 179.544C319.174 181.225 318.198 182.843 318.503 184.513C322.257 185.045 326.023 185.494 329.797 185.859C329.046 185.242 328.965 184.074 329.345 183.18C329.724 182.286 330.462 181.602 331.179 180.946C331.942 180.248 330.842 179.018 329.813 178.907C328.784 178.797 327.573 179.044 326.848 178.306C325.946 177.388 326.623 175.85 327.392 174.818C328.886 172.816 330.736 170.404 329.775 168.099C327.431 162.478 327.947 155.749 331.12 150.552ZM158.228 135.195C157.6 150.581 157.686 165.995 158.486 181.374C164.363 178.184 168.657 172.573 171.321 166.439C172.945 162.697 174.033 158.573 173.383 154.546C172.899 151.542 171.477 148.767 169.824 146.214C166.891 141.684 163.062 137.594 158.228 135.195ZM294.51 127.824C296.62 127.435 298.234 130.041 297.874 132.156C297.515 134.272 295.976 135.954 294.754 137.718C293.065 140.156 291.911 142.916 290.768 145.652C288.05 152.163 286.992 159.359 287.721 166.377C288.15 170.508 289.283 174.753 292.077 177.827C294.87 180.901 299.659 182.438 303.34 180.514C306.502 178.861 308.079 175.218 308.805 171.725C309.53 168.231 309.659 164.575 311.029 161.281C313.556 155.203 319.788 151.532 325.953 149.227C316.685 147.968 308.3 141.511 304.716 132.872C303.688 130.395 302.916 127.602 300.784 125.975C298.651 124.348 294.635 125.145 294.51 127.824ZM216.173 177.387C216.824 177.512 217.464 177.701 218.078 177.951C219.093 178.364 220.183 179.505 219.53 180.384C219.174 180.865 218.489 180.923 217.891 180.938C216.8 180.966 215.624 180.97 214.733 180.34C213.843 179.71 213.534 178.186 214.432 177.567C214.926 177.227 215.584 177.274 216.173 177.387ZM265.305 174.789C266.188 174.864 267.066 174.987 267.936 175.156C268.366 175.24 268.83 175.357 269.1 175.702C269.51 176.224 269.252 177.044 268.733 177.459C268.215 177.874 267.526 177.991 266.87 178.094C265.867 178.251 264.798 178.399 263.873 177.982C262.948 177.565 262.317 176.342 262.882 175.5C263.375 174.765 264.423 174.715 265.305 174.789ZM13.0693 170.043C12.322 170.035 12.0634 171.033 12.0861 171.78C12.1513 173.927 12.5858 176.062 13.3649 178.064C13.5818 178.285 13.8336 177.823 13.8033 177.515L13.0693 170.043ZM156.675 175.571C156.208 175.824 156.03 176.494 156.31 176.944L156.322 176.961L156.312 176.972C156.299 176.987 156.286 177.005 156.271 177.026C156.084 177.31 156.347 177.76 156.687 177.736C156.916 177.038 156.912 176.266 156.675 175.571ZM146.961 172.532C147.972 172.756 149.07 173.595 148.818 174.6C148.652 175.266 147.951 175.656 147.281 175.805C146.612 175.954 145.904 175.944 145.263 176.193C144.45 176.508 143.47 175.852 143.303 174.996C143.135 174.139 143.66 173.245 144.417 172.811C145.175 172.376 146.109 172.344 146.961 172.532ZM152.813 30.8123C152.872 77.1282 153.937 123.443 156.005 169.714L156.222 174.497L156.255 172.959C156.314 169.362 156.262 165.765 156.209 162.168C155.592 120.008 154.974 77.8488 154.357 35.6889C154.331 33.924 154.192 31.915 152.813 30.8123ZM219.06 165.759C219.628 165.929 220.197 166.187 220.564 166.651C220.933 167.115 221.038 167.828 220.674 168.295C220.322 168.747 219.683 168.832 219.112 168.884L216.675 169.1C216.277 169.135 215.849 169.164 215.503 168.964C215.223 168.803 215.038 168.507 214.953 168.196C214.697 167.257 215.331 166.239 216.209 165.821C217.087 165.403 218.128 165.481 219.06 165.759ZM22.7775 129.504C20.244 131.993 18.9262 135.434 17.7087 138.771C14.3161 148.068 11.0921 157.937 12.766 167.691C13.2837 167.786 13.5304 167.082 13.5688 166.557C14.257 157.147 16.1375 147.824 19.1511 138.883C20.301 135.471 21.684 132.006 24.2384 129.469C24.2033 128.851 23.2189 129.07 22.7775 129.504ZM334.237 149.843C333.795 149.951 333.509 150.368 333.279 150.76C331.098 154.459 330.072 158.828 330.376 163.111C330.502 164.879 331.071 166.916 332.723 167.561C334.065 166.272 335.408 164.983 336.751 163.694C336.964 163.489 337.183 163.277 337.301 163.006C337.595 162.328 337.174 161.571 336.787 160.94C334.874 157.827 333.436 153.88 335.03 150.591C335.229 150.181 334.679 149.734 334.237 149.843ZM362.14 145.851C361.925 145.963 361.759 146.148 361.599 146.329C357.636 150.812 353.808 155.415 350.121 160.13C349.352 161.114 348.549 162.224 348.624 163.472C348.691 164.581 349.472 165.547 350.417 166.13C351.363 166.713 352.464 166.979 353.545 167.237C353.834 167.306 354.148 167.373 354.42 167.252C354.67 167.141 354.829 166.896 354.973 166.664C357.23 163.025 359.518 159.315 360.584 155.168C360.811 154.284 361.578 153.666 362.191 152.989C363.394 151.66 364.099 149.889 364.14 148.096C364.154 147.489 364.082 146.848 363.731 146.353C363.38 145.857 362.678 145.57 362.14 145.851ZM265.598 163.598C266.144 163.733 266.747 163.94 266.992 164.446C267.424 165.339 266.411 166.27 265.463 166.563C264.729 166.79 263.91 166.869 263.205 166.561C262.501 166.254 261.967 165.477 262.126 164.724C262.41 163.39 264.273 163.269 265.598 163.598ZM147.865 161.648C148.123 161.879 148.362 162.151 148.459 162.483C148.657 163.151 148.19 163.888 147.55 164.163C146.91 164.438 146.162 164.331 145.518 164.068C144.838 163.791 144.177 163.262 144.09 162.533C143.992 161.701 144.746 160.934 145.577 160.814C146.407 160.693 147.241 161.088 147.865 161.648ZM221.33 154.325C221.993 154.595 222.062 155.597 221.605 156.147C221.148 156.697 220.386 156.88 219.673 156.941C218.961 157.001 218.223 156.975 217.557 157.235C216.534 157.636 215.421 156.399 215.665 155.328C215.908 154.256 217.059 153.59 218.157 153.539C219.255 153.488 220.313 153.91 221.33 154.325ZM264.463 152.713C265.402 152.759 266.331 153.006 267.169 153.432C267.532 153.616 267.909 153.872 268.012 154.266C268.225 155.079 267.206 155.637 266.381 155.795C265.65 155.936 264.907 156.019 264.163 156.045C263.244 156.077 262.136 155.9 261.771 155.057C261.486 154.402 261.832 153.598 262.414 153.185C262.996 152.771 263.75 152.678 264.463 152.713ZM325.012 92.7281C319.532 93.6125 314.028 94.345 308.509 94.9256C304.51 95.3455 300.744 97.614 298.503 100.952C298.043 101.638 297.726 102.732 298.437 103.153C300.449 100.832 303.18 99.1427 306.155 98.3797C307.218 98.107 308.383 97.9583 309.386 98.4049C310.388 98.8521 311.105 100.082 310.651 101.081C309.954 102.617 307.732 102.187 306.049 102.085C301.37 101.799 297.322 107.155 298.875 111.579C299.964 107.356 305.993 105.523 309.373 108.28C312.752 111.036 312.339 117.091 308.725 119.532C307.53 120.338 305.997 120.901 305.451 122.235C304.984 123.379 305.434 124.671 305.883 125.822C306.586 127.629 307.29 129.437 307.993 131.243C309.468 135.033 311.035 138.96 314.021 141.719C316.317 143.842 319.295 145.104 322.332 145.844C333.284 148.513 345.613 144.266 352.596 135.417C353.156 134.707 354.433 135.38 354.533 136.278C354.632 137.176 354.018 137.983 353.411 138.652C350.284 142.093 346.343 144.79 342.003 146.458C339.951 147.246 337.513 148.099 336.883 150.204C336.36 151.948 337.459 153.875 339.037 154.782C340.615 155.69 342.538 155.766 344.347 155.568C347.956 155.174 351.447 153.761 354.315 151.536C355.184 150.862 356.026 150.074 356.412 149.043C356.778 148.067 356.695 146.989 356.606 145.95L356.529 145.058C356.191 141.187 355.752 137.271 354.174 133.731C353.415 132.028 352.4 130.432 351.84 128.653C351.151 126.46 351.193 124.107 350.73 121.854C350.266 119.603 349.093 117.263 346.949 116.433C347.515 114.995 348.928 114.089 349.843 112.842C350.758 111.596 350.893 109.418 349.452 108.855C348.764 108.585 347.979 108.818 347.323 109.159C344.556 110.595 343.064 114.111 343.952 117.099C344.532 119.049 341.451 120.357 339.793 119.179C338.134 118.001 337.725 115.758 337.398 113.751C336.13 105.967 333.586 97.5768 326.939 93.3338C326.358 92.9636 325.692 92.6186 325.012 92.7281ZM147.284 147.937C148.158 148.22 149.029 149.006 148.848 149.906C148.676 150.757 147.696 151.156 146.84 151.303C145.626 151.51 144.042 151.272 143.7 150.088C143.376 148.962 144.555 147.882 145.721 147.759C146.246 147.703 146.781 147.773 147.284 147.937ZM287.437 131.726C286.622 132.498 286.226 133.6 285.855 134.66C285.02 137.051 284.173 139.511 284.27 142.042C284.332 143.671 283.386 145.138 282.712 146.622C282.038 148.107 281.671 150.007 282.729 151.248C285.255 149.124 285.861 145.549 286.417 142.296C287.081 138.406 287.984 134.375 290.499 131.335C289.619 130.639 288.252 130.953 287.437 131.726ZM220.877 142.564C221.527 142.773 222.263 143.191 222.271 143.875C222.281 144.706 221.258 145.087 220.441 145.237C220.032 145.312 219.622 145.387 219.212 145.462C218.169 145.652 217.05 145.836 216.079 145.406C215.109 144.976 214.463 143.666 215.097 142.815C215.506 142.265 216.26 142.115 216.944 142.072C218.271 141.99 219.612 142.158 220.877 142.564ZM125.953 130.568C127.095 131.115 128.373 132.191 127.95 133.384C116.183 130.819 103.612 132.087 92.5947 136.953C87.6371 139.142 82.9841 142.036 77.8533 143.781C76.0984 144.378 74.1816 144.836 72.4088 144.295C70.6353 143.754 69.157 141.872 69.6752 140.092C70.1622 138.422 72.0226 137.627 73.6714 137.069C81.7958 134.319 90.0621 131.987 98.426 130.084C107.552 128.008 117.511 126.53 125.953 130.568ZM294.913 130.427C294.073 130.424 293.366 131.04 292.814 131.673C291.474 133.209 290.521 135.05 289.812 136.961C288.932 139.335 288.412 141.843 288.274 144.37C290.707 140.185 293.308 136.097 296.07 132.121C296.549 131.431 295.753 130.431 294.913 130.427ZM280.003 137.884C279.772 137.885 279.53 137.894 279.335 138.017C278.897 138.295 278.958 138.944 279.088 139.446C279.5 141.039 280.07 142.591 280.788 144.072C281.22 141.985 281.912 139.953 282.843 138.037C281.901 137.929 280.951 137.878 280.003 137.884ZM95.6155 132.505C88.6502 134.646 81.685 136.787 74.7204 138.927C73.8884 139.183 72.923 139.577 72.7452 140.43C73.3118 141.256 74.3906 141.607 75.3911 141.559C76.3917 141.51 77.3411 141.126 78.2687 140.747C85.3348 137.86 92.4009 134.973 99.467 132.085C98.2051 131.733 96.8682 132.121 95.6155 132.505ZM169.115 136.413C168.741 137.062 167.963 137.337 167.379 137.806C166.796 138.276 166.453 139.287 167.069 139.713C168.012 138.768 168.956 137.823 169.899 136.879C169.704 136.637 169.421 136.468 169.115 136.413ZM242.604 135.91C247.666 136.437 252.775 136.707 257.847 136.269C259.159 136.157 260.728 136.103 261.507 137.166C260.524 138.167 258.978 138.288 257.577 138.347C252.313 138.573 247.049 138.799 241.785 139.024C240.758 139.068 239.458 138.937 239.125 137.965C238.862 137.2 239.458 136.355 240.207 136.048C240.955 135.74 241.799 135.826 242.604 135.91ZM320.876 130.378C322.101 131.868 322.548 133.964 322.038 135.825C321.912 136.284 321.729 136.734 321.435 137.109C320.665 138.092 319.243 138.383 318.028 138.092C316.814 137.801 315.774 137.028 314.847 136.19C313.892 135.328 312.995 134.345 312.537 133.142C312.078 131.939 312.132 130.476 312.945 129.479C313.616 128.656 314.699 128.262 315.757 128.185C317.681 128.043 319.651 128.888 320.876 130.378ZM150.205 133.842C150.689 134.233 150.608 135.045 150.194 135.51C149.782 135.975 149.152 136.173 148.548 136.324C147.836 136.502 147.087 136.64 146.372 136.47C145.658 136.3 144.987 135.746 144.9 135.017C144.772 133.96 145.879 133.132 146.932 132.966C148.081 132.785 149.3 133.111 150.205 133.842ZM315.27 130.729C314.734 131.423 315.086 132.677 315.956 132.795C316.96 132.933 317.742 133.988 317.58 134.988C317.452 135.774 318.411 136.43 319.171 136.194C319.931 135.958 320.37 135.106 320.353 134.311C320.337 133.515 319.957 132.773 319.527 132.105C319.052 131.367 318.472 130.65 317.671 130.291C316.871 129.932 315.807 130.035 315.27 130.729ZM312.596 59.4072C305.297 60.7441 298.067 63.9322 293.359 69.668C288.652 75.4032 287.024 83.9873 290.704 90.4304C292.004 92.7075 293.99 94.6933 296.487 95.4948C298.984 96.2963 302.003 95.7065 303.669 93.6809C305.558 91.3839 309.373 93.5873 312.216 92.7155C316.15 91.5093 320.238 90.8093 324.349 90.6381C325.324 90.5976 326.329 90.5917 327.239 90.9446C328.226 91.3275 329.006 92.0951 329.757 92.8422C332.358 95.4344 335.014 98.1023 336.554 101.436C338.997 106.724 338.393 113.171 341.479 118.112C341.839 115.014 342.2 111.916 342.56 108.818C342.694 107.668 342.843 106.475 343.464 105.499C344.086 104.522 345.328 103.837 346.416 104.232C348.334 104.93 350.332 105.678 351.709 107.185C353.086 108.692 353.596 111.203 352.272 112.757C350.992 114.259 352.444 116.429 353.123 118.282C354.3 121.49 352.916 125.157 353.841 128.447C354.608 131.172 356.822 133.207 358.938 135.088C359.556 135.639 360.277 136.226 361.102 136.15C361.792 136.088 362.347 135.573 362.818 135.064C365.629 132.034 367.555 128.192 368.299 124.126C368.6 122.486 368.029 120.096 366.377 120.32C366.828 116.384 370.446 113.703 372.572 110.359C374.863 106.753 375.404 102.318 375.509 98.0466C375.614 93.7538 375.195 89.0882 372.334 85.8856C368.897 82.038 362.219 81.7501 358.463 85.2884C357.527 86.1702 356.294 87.3359 355.177 86.6977C356.052 85.1279 356.927 83.5574 357.802 81.9876C359.229 79.4285 360.685 76.7772 360.975 73.8626C361.548 68.1108 357.169 62.6656 351.755 60.6426C346.341 58.6203 340.228 59.4589 334.797 61.4368C333.436 61.9331 331.828 62.998 332.196 64.3986C332.411 65.21 333.232 65.6997 333.653 66.4249C333.916 66.8774 333.89 67.022 333.593 67.3876C333.413 67.6092 333.09 68.2488 332.8 68.1241C329.721 64.5578 326.39 60.8244 321.877 59.4762C318.884 58.5818 315.668 58.8446 312.596 59.4072ZM277.626 132.953C277.241 132.725 276.505 132.575 276.576 133.016C276.785 134.096 277.757 134.9 278.806 135.23C279.855 135.561 280.982 135.505 282.081 135.446C282.51 135.423 282.968 135.39 283.31 135.128C283.597 134.909 283.754 134.565 283.9 134.236C284.15 133.67 284.4 133.105 284.65 132.541C282.609 131.212 279.722 134.195 277.626 132.953ZM218.675 129.263C219.533 129.327 220.385 129.477 221.215 129.709C221.933 129.911 222.759 130.332 222.794 131.077C222.841 132.058 221.565 132.458 220.586 132.543C219.59 132.629 218.594 132.715 217.599 132.801C216.873 132.864 216.053 132.896 215.519 132.4C214.803 131.734 215.092 130.443 215.868 129.847C216.643 129.252 217.699 129.19 218.675 129.263ZM241.963 129.05C246.726 129.688 251.553 129.841 256.347 129.508C256.909 129.469 257.522 129.436 257.985 129.757C258.448 130.079 258.563 130.908 258.058 131.157C257.905 131.233 257.728 131.241 257.557 131.247C251.761 131.466 245.967 131.685 240.171 131.904C239.643 131.923 239.061 131.926 238.654 131.588C237.927 130.982 238.344 129.687 239.178 129.239C240.013 128.792 241.025 128.925 241.963 129.05ZM288.206 124.329C286.356 124.429 284.473 124.601 282.765 125.318C281.056 126.036 279.524 127.386 279.013 129.167C278.91 129.529 278.871 129.974 279.149 130.228C279.365 130.425 279.69 130.428 279.983 130.417C283.056 130.296 286.117 129.838 289.091 129.055C290.569 128.665 292.352 127.725 292.152 126.209C292.047 125.411 291.358 124.786 290.598 124.522C289.838 124.258 289.01 124.286 288.206 124.329ZM74.7529 124.106C74.4583 125.668 74.386 127.271 74.5399 128.853C74.9221 129.266 75.425 128.459 75.3925 127.898C75.3188 126.616 75.1039 125.342 74.7529 124.106ZM173.72 122.197C184.374 122.678 195.027 123.16 205.681 123.641C206.676 123.686 207.997 124.067 207.938 125.06C206.666 125.877 205.026 125.708 203.525 125.533C194.028 124.427 184.421 124.274 174.893 125.078C174.071 125.147 173.198 125.214 172.464 124.837C171.729 124.46 171.256 123.454 171.733 122.78C172.15 122.19 172.999 122.164 173.72 122.197ZM147.886 121.079C148.355 121.15 148.844 121.273 149.184 121.602C149.962 122.357 149.482 123.79 148.546 124.337C147.61 124.883 146.45 124.807 145.37 124.713C144.185 124.611 143.8 122.833 144.579 121.934C145.357 121.034 146.711 120.902 147.886 121.079ZM185.357 117.139C202.72 118.039 220.083 118.94 237.445 119.841C238.376 119.889 239.606 120.247 239.557 121.177C236.694 121.693 233.729 121.635 230.888 121.009L233.411 123.18C232.209 123.938 230.927 124.721 229.506 124.753C228.084 124.784 226.536 123.736 226.577 122.315C227.296 121.983 228.015 121.651 228.735 121.319C214.708 120.117 200.617 119.679 186.544 120.007C185.731 120.025 184.864 120.032 184.179 119.597C183.493 119.162 183.146 118.103 183.714 117.523C184.119 117.107 184.777 117.109 185.357 117.139ZM297.785 119.461C297.159 119.495 296.628 119.91 296.143 120.307C295.568 120.778 294.993 121.248 294.419 121.718C293.816 122.211 293.164 122.799 293.129 123.576C293.11 123.998 293.431 124.499 293.842 124.404C293.957 124.378 294.057 124.308 294.153 124.24C295.522 123.274 296.892 122.308 298.261 121.343C298.54 121.146 298.839 120.922 298.929 120.593C299.095 119.989 298.41 119.426 297.785 119.461ZM319.083 114.401C319.138 115.81 318.438 117.13 318.19 118.517C317.941 119.904 318.415 121.671 319.787 121.996C320.191 122.092 320.309 122.671 320.081 123.018C319.852 123.365 319.42 123.515 319.011 123.589C317.74 123.82 316.236 123.412 315.652 122.26C315.359 121.684 315.337 121.013 315.32 120.367C315.276 118.636 315.231 116.905 315.187 115.175C315.156 113.992 315.289 112.535 316.372 112.057C317.661 111.489 319.029 112.993 319.083 114.401ZM300.197 122.252C299.946 122.369 299.776 122.639 299.779 122.915L299.716 122.932C299.855 123.24 300.355 123.288 300.55 123.012C300.746 122.736 300.534 122.28 300.197 122.252ZM297.801 113.207C297.227 113.222 296.585 113.326 296.245 113.79C295.881 114.285 296.029 115.013 296.401 115.501C296.775 115.989 297.324 116.303 297.837 116.641C299.998 118.067 301.723 120.142 302.728 122.527C303.412 121.627 304.095 120.727 304.779 119.827C305.289 119.155 305.828 118.386 305.72 117.55C305.642 116.945 305.236 116.436 304.805 116.005C302.978 114.177 300.385 113.142 297.801 113.207ZM77.5899 99.2853C76.7871 99.351 76.3705 100.253 76.1183 101.018C75.7335 102.183 75.3487 103.349 74.9645 104.515C74.5439 105.789 74.1206 107.077 74.0058 108.413C73.9288 109.298 73.9899 110.189 74.0502 111.076C74.2393 113.845 74.4278 116.615 74.6169 119.384C74.6534 119.919 75.0607 120.658 75.5033 120.356C75.3195 113.282 76.0221 106.186 77.5899 99.2853ZM304.713 109.468C303.984 109.746 303.21 110.233 303.105 111.006C302.999 111.779 304.137 112.497 304.578 111.853C305.141 111.032 306.549 111.461 307.015 112.341C307.48 113.22 307.344 114.279 307.337 115.275C307.33 116.27 307.559 117.412 308.426 117.899C308.572 116.568 308.718 115.236 308.863 113.905C309.043 112.261 309.032 110.222 307.587 109.417C306.723 108.936 305.638 109.116 304.713 109.468ZM328.119 108.715C329.302 108.769 330.566 109.181 331.212 110.172C331.86 111.164 331.516 112.789 330.376 113.108C328.749 113.564 327.228 111.271 325.637 111.84C324.642 112.197 324.028 113.596 322.99 113.395C322.347 113.271 321.991 112.5 322.119 111.858C322.247 111.215 322.727 110.701 323.24 110.293C324.609 109.209 326.375 108.638 328.119 108.715ZM146.949 107.544C148.089 107.729 149.206 108.978 148.605 109.964C148.436 110.241 148.162 110.438 147.874 110.588C147.163 110.963 146.286 111.09 145.551 110.764C144.817 110.437 144.301 109.59 144.499 108.812C144.749 107.833 145.952 107.383 146.949 107.544ZM329.974 101.051C330.759 101.798 331.37 103.203 330.492 103.836C329.562 104.506 328.449 103.375 327.559 102.653C326.566 101.846 325.22 101.49 323.957 101.7C323.149 101.834 322.388 102.185 321.578 102.303C320.768 102.42 319.825 102.235 319.383 101.545C318.919 100.823 319.214 99.7995 319.852 99.2243C320.49 98.6497 321.376 98.4387 322.232 98.3611C325.037 98.1043 327.933 99.1108 329.974 101.051ZM146.91 98.7645C147.61 99.1752 147.987 100.143 147.598 100.855C147.082 101.796 145.733 101.783 144.692 101.525C144.316 101.432 143.922 101.308 143.674 101.012C143.081 100.306 143.745 99.1977 144.573 98.7897C145.301 98.4301 146.209 98.3538 146.91 98.7645Z" fill="#00160A"/>
<path fill-rule="evenodd" clip-rule="evenodd" d="M52.9143 193.395C53.0098 193.661 53.098 193.958 52.9886 194.218C52.7922 194.685 52.1532 194.704 51.6463 194.7C48.0828 194.671 44.7693 197.732 44.5165 201.287C44.49 201.662 43.9738 201.834 43.6394 201.66C43.3057 201.487 43.1338 201.111 43.0184 200.752C42.3675 198.732 42.7868 196.468 43.8245 194.617C44.8629 192.765 46.4685 191.289 48.2135 190.08C48.8902 189.612 49.7335 189.161 50.4992 189.464C51.0047 189.664 51.3352 190.146 51.6112 190.615C52.13 191.499 52.5666 192.431 52.9143 193.395ZM50.8442 192.991C50.5304 192.031 49.2571 191.686 48.3064 192.025C47.3556 192.364 46.6622 193.172 46.0153 193.947C45.4016 194.683 44.76 195.484 44.6877 196.438C46.3272 194.702 48.5061 193.481 50.8442 192.991Z" fill="#FFB61D"/>
<defs>
<linearGradient id="paint0_linear_1_3220" x1="198.244" y1="0" x2="198" y2="636" gradientUnits="userSpaceOnUse">
<stop stop-color="#2582CD"/>
<stop offset="1" stop-color="#3CD3DD"/>
</linearGradient>
</defs>
</svg>
